<svg width="18" height="18" viewBox="0 0 18 18" fill="none" xmlns="http://www.w3.org/2000/svg">
<path fill-rule="evenodd" clip-rule="evenodd" d="M10.1023 2.71973C11.2044 2.71978 12.2149 3.29892 12.779 4.22754H13.783C13.9345 4.22759 14.0777 4.29687 14.1726 4.41504C14.2674 4.53325 14.304 4.68799 14.2712 4.83594L13.9822 6.13477C13.9402 6.32372 13.793 6.47206 13.6042 6.51465C13.4352 6.55259 13.2595 6.49991 13.1394 6.37891C13.1196 6.39874 13.0977 6.41625 13.0749 6.43262L13.2634 6.70117C13.7146 6.48213 14.2214 6.36036 14.7566 6.36035C15.0326 6.36054 15.2566 6.58432 15.2566 6.86035C15.2564 7.13624 15.0325 7.36017 14.7566 7.36035C14.4364 7.36036 14.1311 7.42325 13.8513 7.53613L14.1013 7.8916C14.3687 7.78472 14.66 7.72467 14.9656 7.72461C16.2536 7.72461 17.2984 8.76866 17.2986 10.0566C17.2985 11.3448 16.2537 12.3896 14.9656 12.3896C13.6777 12.3894 12.6336 11.3446 12.6335 10.0566C12.6336 9.43538 12.8781 8.87206 13.2742 8.4541L13.0203 8.09375C12.5956 8.53021 12.3337 9.12627 12.3337 9.7832C12.3334 10.059 12.1097 10.2832 11.8337 10.2832C11.5578 10.2832 11.3341 10.059 11.3337 9.7832C11.3337 9.62225 11.3454 9.46364 11.3669 9.30859H9.97729L7.15405 10.375C6.99851 11.5122 6.02622 12.3894 4.84643 12.3896C3.55847 12.3894 2.51443 11.3446 2.5144 10.0566C2.51462 8.76879 3.55858 7.72483 4.84643 7.72461C5.17089 7.72468 5.47973 7.79136 5.76049 7.91113L5.81615 7.83984L3.9685 7.0752L3.54662 7.32227L2.85033 8.7168C2.72676 8.96354 2.42631 9.0638 2.17944 8.94043C1.93255 8.81698 1.83254 8.51646 1.9558 8.26953L2.71947 6.74219L2.75658 6.68066C2.78155 6.6448 2.81111 6.61214 2.84447 6.58398C2.80286 6.54884 2.76645 6.50723 2.73803 6.45996L2.28002 5.69629C2.1874 5.54192 2.1846 5.34909 2.27319 5.19238C2.36196 5.03576 2.52869 4.93947 2.70873 4.93945H3.41479C3.43348 4.89544 3.45593 4.85211 3.48705 4.81445C3.58196 4.69997 3.72311 4.6339 3.87182 4.63379H4.3269C4.72405 4.63383 5.11853 4.69734 5.49584 4.82129L7.2185 5.38672H8.09447L8.68725 4.94238C9.14586 4.59843 9.70384 4.41218 10.2771 4.41211C10.9046 4.41211 11.5033 4.63466 11.9744 5.02734C11.997 5.00456 12.0204 4.98281 12.0466 4.96484C12.0423 4.95685 12.0359 4.94965 12.032 4.94141C11.679 4.19552 10.9275 3.71979 10.1023 3.71973H9.82201C9.54597 3.71961 9.32201 3.49579 9.32201 3.21973C9.32205 2.94369 9.546 2.71985 9.82201 2.71973H10.1023ZM4.49877 9.89941C4.48287 9.94295 4.47338 9.99005 4.47338 10.0391C4.47373 10.2635 4.65615 10.4452 4.88061 10.4453C5.07364 10.4452 5.2336 10.3102 5.27514 10.1299C5.09865 10.266 4.84767 10.2732 4.66381 10.1299C4.58488 10.0682 4.52924 9.98751 4.49877 9.89941ZM15.2673 9.75391C15.2556 9.89713 15.1859 10.035 15.0593 10.124C14.9197 10.222 14.7473 10.2376 14.5984 10.1826C14.6568 10.3358 14.8045 10.4453 14.9783 10.4453C15.2026 10.445 15.3842 10.2633 15.3845 10.0391C15.3845 9.92799 15.3394 9.82741 15.2673 9.75391ZM7.06127 9.27539L7.07104 9.33691L8.73608 8.70801C8.44078 8.59881 8.12682 8.53991 7.80737 8.53711L7.80053 8.53613L7.06127 9.27539ZM10.2771 5.41211C9.92031 5.41218 9.5733 5.52818 9.28783 5.74219L8.56225 6.28613C8.47574 6.35095 8.36957 6.38672 8.26147 6.38672H7.13647C7.08375 6.38667 7.03129 6.37774 6.98119 6.36133L5.18432 5.77051C4.92656 5.68582 4.6575 5.64166 4.38647 5.63574C4.36789 5.67881 4.34572 5.72091 4.31518 5.75781C4.22026 5.8723 4.07913 5.93936 3.93041 5.93945H3.83862L4.12084 6.05664L6.45483 7.02246L6.47729 6.99414C6.64719 6.77661 6.9618 6.73745 7.17944 6.90723C7.33258 7.02691 7.39386 7.21779 7.35912 7.39648L7.69506 7.53516L7.81615 7.53711C8.62835 7.54422 9.41314 7.81722 10.0564 8.30859H10.3191L10.6619 7.53613L9.99194 6.87402C9.85824 6.74174 9.8107 6.54537 9.86791 6.36621C9.92531 6.18696 10.0786 6.05542 10.2644 6.02539L11.3865 5.84375C11.0858 5.57005 10.6922 5.41211 10.2771 5.41211ZM11.3953 6.85449L11.6111 7.06836C11.7588 7.21449 11.8008 7.43704 11.7165 7.62695L11.4138 8.30859H11.6667C11.8559 7.91288 12.1183 7.55855 12.4372 7.26465L12.072 6.74512L11.3953 6.85449Z" fill="#878784"/>
</svg>
