<svg width="179" height="28" viewBox="0 0 179 28" fill="none" xmlns="http://www.w3.org/2000/svg">
<path fill-rule="evenodd" clip-rule="evenodd" d="M57.9672 14.1414L60.0255 14.358C60.9422 14.483 61.0589 15.1664 61.0589 15.733V18.1164H51.5339V15.733C51.5339 15.1664 51.6505 14.4747 52.5672 14.358L54.6255 14.1414V12.0747H42.2422V14.1414L44.3089 14.358C45.2172 14.483 45.3422 15.1664 45.3422 15.733V23.5914C45.3422 24.1664 45.2255 24.8497 44.3089 24.958L42.2422 25.1914V27.358H54.6255V25.1914L52.5672 24.958C51.6505 24.8497 51.5339 24.158 51.5339 23.5914V21.1997H61.0589V23.5914C61.0589 24.1664 60.9505 24.8497 60.0255 24.958L57.9672 25.1914V27.358H70.2339V25.1914L68.1755 24.958C67.2422 24.8497 67.2422 24.158 67.2422 23.5914V15.733C67.2422 15.1664 67.2422 14.4747 68.1755 14.358L70.2339 14.1414V12.0747H57.9672V14.1414Z" fill="#CC0000"/>
<path fill-rule="evenodd" clip-rule="evenodd" d="M140.258 12.0747H124.991V14.1414L126.824 14.2414C127.399 14.3497 127.858 14.6997 127.858 15.4914V23.583C127.858 24.158 127.749 24.8414 126.824 24.9497L124.758 25.183V27.3497H140.258C145.766 27.3497 150.249 25.0664 150.249 19.708C150.249 14.2414 145.774 12.0747 140.258 12.0747ZM139.116 24.3997H133.949V14.933H139.116C142.099 14.933 143.133 16.4164 143.133 19.7164C143.124 22.9164 142.099 24.3997 139.116 24.3997Z" fill="#CC0000"/>
<path fill-rule="evenodd" clip-rule="evenodd" d="M176.184 25.083C175.151 24.958 174.918 24.283 174.576 23.833L167.459 12.9914C166.993 12.308 166.651 12.0747 165.851 12.0747H154.143V14.1414L157.001 14.4747C157.351 14.4747 157.918 15.0414 157.476 15.733L152.193 24.158C151.959 24.4997 151.726 24.958 151.159 24.958L148.984 25.1914V27.358H158.859V25.1914L157.251 25.0747C156.443 24.9497 156.093 24.4997 156.443 23.933L157.251 22.683H166.659L167.351 23.7164C168.034 24.6247 167.226 24.958 166.559 25.083L164.826 25.1997V27.3664H178.134V25.1997L176.184 25.083ZM158.859 19.9497L161.834 15.2747L164.951 19.9497H158.859Z" fill="#CC0000"/>
<path fill-rule="evenodd" clip-rule="evenodd" d="M113.966 14.1414L116.041 14.358C116.966 14.483 117.074 15.1664 117.074 15.733V23.3664L108.924 12.658C108.583 12.1914 108.241 12.0747 107.316 12.0747H96.7578V14.1414L98.8245 14.358C99.7328 14.483 99.8578 15.1664 99.8578 15.733V23.5914C99.8578 24.1664 99.7328 24.8497 98.8245 24.958L96.7578 25.1914V27.358H106.624V25.1914L104.566 24.958C103.641 24.8497 103.524 24.158 103.524 23.5914V15.958L111.683 26.683C112.033 27.1414 112.374 27.3664 113.283 27.3664H120.749V15.733C120.749 15.1664 120.866 14.4747 121.783 14.358L123.849 14.1414V12.0747H113.966V14.1414Z" fill="#CC0000"/>
<path fill-rule="evenodd" clip-rule="evenodd" d="M83.4424 11.5166C73.4591 11.5166 70.9258 15.8499 70.9258 19.7249C70.9258 23.4916 73.4591 27.8166 83.4424 27.8166C93.5424 27.8166 96.0591 23.4916 96.0591 19.7249C96.0591 15.8499 93.5424 11.5166 83.4424 11.5166ZM83.4424 24.9583C79.6508 24.9583 78.0508 23.2499 78.0508 19.7166C78.0508 16.0749 79.6508 14.4749 83.4424 14.4749C87.3424 14.4749 88.9508 16.0749 88.9508 19.7166C88.9508 23.2499 87.3424 24.9583 83.4424 24.9583Z" fill="#CC0000"/>
<path d="M30.1665 17.4834L15.5415 20.3001C15.5415 20.3001 15.1832 20.3334 15.1749 20.6084C15.1665 20.8834 15.4165 20.9501 15.4165 20.9501L6.2082 22.7084L4.4082 21.0584C4.4082 21.0584 28.6832 14.8668 28.7749 14.8334C28.8665 14.8001 34.5582 13.3501 34.5582 13.3501C33.1915 16.0751 31.7749 17.0084 30.9332 17.3251C30.9332 17.3168 30.5749 17.4168 30.1665 17.4834Z" fill="#CC0000"/>
<path d="M6.625 23.083L8.70833 24.9914L19.7417 23.5914C19.7417 23.5914 19.575 23.483 19.5583 23.3164C19.5417 23.1497 19.6917 23.0164 19.9583 22.9664C20.225 22.9164 26.2583 22.058 26.2583 22.058C26.2583 22.058 27.7167 21.908 28.7167 20.933C28.7167 20.933 30.575 19.0164 30.7667 18.5747L6.625 23.083Z" fill="#CC0000"/>
<path d="M9.17383 25.4252L11.4405 27.5002H26.0655L20.5738 24.0835L9.17383 25.4252Z" fill="#CC0000"/>
<path d="M31.2579 9.45006L3.91628 18.3751C3.91628 18.3751 3.79961 18.4167 3.64128 18.4834L3.61628 18.4917L3.60794 18.5001L3.47461 18.5667C3.17461 18.7084 2.97461 19.0084 2.97461 19.3501C2.97461 19.5251 3.02461 19.6751 3.10794 19.8167L3.14961 19.8834L3.19961 19.9417L3.22461 19.9751L3.95794 20.6417L11.6913 18.6667C11.6913 18.6667 11.4496 18.5751 11.4663 18.3251C11.4913 18.0834 11.7496 18.0334 11.7496 18.0334L33.7413 12.1251C33.7413 12.1251 36.0996 11.8001 37.9246 7.1084C37.9329 7.11673 33.2663 8.8334 31.2579 9.45006Z" fill="#CC0000"/>
<path d="M0.9 21.1583L5.83333 26.075C5.83333 26.075 6.65833 26.9417 6.625 27.5H10.175L2.44167 20.3333C2.38333 20.2667 2.23333 20.0833 2.23333 20.0833C2.06667 19.8583 1.975 19.575 1.975 19.2667C1.975 18.7083 2.325 18.2167 2.8 17.9917L2.95 17.9083C3.15833 17.8 3.40833 17.7167 3.40833 17.7167L32.5 7.50833L36.425 6.05833C36.425 6.05833 38.425 5.43333 39.3917 3.15C39.3917 3.15 40.4583 0.658333 40.575 0C40.575 0 34.4 2.86667 33.65 3.2C32.8917 3.525 2.15 16.0417 2.15 16.0417C1.54167 16.325 1.26667 16.575 1.26667 16.575C0.508333 17.125 0 18.025 0 19.0083C0 19.6 0.175 20.1417 0.483333 20.6083C0.475 20.6083 0.691667 20.9417 0.9 21.1583Z" fill="#CC0000"/>
</svg>
