<svg width="195" height="230" viewBox="0 0 195 230" fill="none" xmlns="http://www.w3.org/2000/svg">
<g clip-path="url(#clip0_4326_53751)">
<path opacity="0.2" d="M87.2713 217.419C135.47 217.419 174.543 178.347 174.543 130.148C174.543 81.9494 135.47 42.8767 87.2713 42.8767C39.0727 42.8767 0 81.9494 0 130.148C0 178.347 39.0727 217.419 87.2713 217.419Z" fill="#E9E9E9"/>
<path d="M6.79967 203.345C3.06647 195.299 1.1307 186.536 1.12696 177.666C1.12322 168.796 3.05161 160.031 6.77802 151.982C10.5044 143.933 15.9394 136.791 22.7051 131.055C29.4707 125.319 37.4047 121.125 45.9551 118.766L51.148 137.539C45.3234 139.145 39.9183 142 35.3089 145.906C30.6995 149.812 26.9964 154.676 24.4571 160.158C21.9178 165.64 20.6034 171.61 20.6051 177.652C20.6069 183.694 21.9248 189.663 24.4673 195.144L6.79967 203.345Z" fill="#E9E9E9"/>
<path d="M7.8186 229.08C6.73977 229.08 5.68177 228.783 4.76184 228.219C3.8419 227.655 3.09595 226.848 2.60662 225.887C1.23943 223.202 0.414452 220.274 0.178803 217.27C-0.0568467 214.266 0.301442 211.246 1.23321 208.38C3.11501 202.594 7.21849 197.791 12.6409 195.03C15.3258 193.663 18.2538 192.838 21.2575 192.603C24.2612 192.367 27.282 192.725 30.1473 193.657C35.934 195.539 40.7361 199.642 43.4973 205.065C43.8523 205.749 44.0684 206.497 44.133 207.266C44.1976 208.034 44.1095 208.808 43.8738 209.542C43.638 210.276 43.2593 210.956 42.7595 211.543C42.2596 212.131 41.6485 212.613 40.9614 212.963C40.2742 213.313 39.5246 213.523 38.7557 213.582C37.9869 213.641 37.214 213.547 36.4816 213.306C35.7491 213.065 35.0717 212.681 34.4883 212.177C33.9049 211.672 33.4271 211.058 33.0824 210.368C32.4136 209.047 31.491 207.871 30.3672 206.908C29.2435 205.944 27.9407 205.212 26.5335 204.753C25.1263 204.293 23.6423 204.116 22.1665 204.231C20.6907 204.346 19.2521 204.751 17.9329 205.422C16.6138 206.094 15.4402 207.019 14.4791 208.145C13.5181 209.271 12.7886 210.576 12.3324 211.984C11.8762 213.392 11.7022 214.876 11.8205 216.352C11.9387 217.828 12.3469 219.265 13.0215 220.583C13.4746 221.473 13.6918 222.465 13.6524 223.464C13.6131 224.462 13.3184 225.434 12.7965 226.286C12.2747 227.138 11.5431 227.843 10.6716 228.332C9.80013 228.821 8.81787 229.078 7.8186 229.08Z" fill="#292A2E"/>
<path d="M158.855 129.564C150.646 136.574 140.715 141.265 130.086 143.151L126.657 123.976C136.107 122.273 144.677 117.353 150.912 110.051C157.148 102.749 160.666 93.5154 160.869 83.9155L180.343 84.3216C180.041 99.9658 173.72 114.892 162.696 125.995C161.459 127.244 160.179 128.434 158.855 129.564Z" fill="#E9E9E9"/>
<path d="M185.941 83.7648C182.627 86.5807 178.58 88.3967 174.273 89.001C169.966 89.6053 165.576 88.9731 161.615 87.1779C157.653 85.3828 154.283 82.4987 151.898 78.8619C149.513 75.225 148.211 70.9852 148.143 66.6365C148.128 65.0926 148.724 63.6055 149.802 62.5C150.88 61.3945 152.352 60.7605 153.895 60.7364C155.439 60.7124 156.93 61.3003 158.042 62.3716C159.153 63.443 159.796 64.9108 159.829 66.4544C159.875 69.4394 161.106 72.2836 163.249 74.3615C165.393 76.4393 168.274 77.5806 171.259 77.5342C174.244 77.4878 177.088 76.2575 179.166 74.1141C181.244 71.9706 182.385 69.0895 182.338 66.1046C182.314 64.5549 182.907 63.0592 183.985 61.9464C185.064 60.8336 186.541 60.1949 188.09 60.1708C189.64 60.1467 191.136 60.7392 192.249 61.8179C193.361 62.8966 194 64.3732 194.024 65.9228C194.079 68.9366 193.536 71.9313 192.426 74.7336C191.316 77.536 189.661 80.0903 187.557 82.2488C187.04 82.7826 186.501 83.2879 185.941 83.7648Z" fill="#292A2E"/>
<path d="M144.261 0.445573L138.96 15.8176C138.926 15.9156 138.916 16.0201 138.93 16.1228C138.944 16.2254 138.982 16.3233 139.041 16.4086C139.1 16.4938 139.178 16.5641 139.269 16.6136C139.36 16.6631 139.462 16.6905 139.565 16.6936L143.141 16.8003C143.246 16.8035 143.349 16.8315 143.441 16.8822C143.533 16.9329 143.611 17.0048 143.67 17.0918C143.728 17.1789 143.765 17.2787 143.778 17.3829C143.79 17.4871 143.778 17.5928 143.741 17.6912L137.842 33.5726C137.787 33.7212 137.787 33.8846 137.842 34.0331C137.898 34.1816 138.005 34.3052 138.143 34.3815C138.282 34.4578 138.444 34.4817 138.599 34.4488C138.754 34.4158 138.892 34.3283 138.988 34.2022L152.877 15.8959C152.939 15.8148 152.981 15.7206 153 15.6206C153.019 15.5206 153.015 15.4175 152.988 15.3194C152.96 15.2213 152.911 15.1308 152.843 15.055C152.775 14.9793 152.69 14.9202 152.596 14.8825L148.436 13.2226C148.354 13.1902 148.28 13.1419 148.218 13.0805C148.155 13.0192 148.105 12.946 148.071 12.8653C148.038 12.7845 148.02 12.6978 148.02 12.6103C148.02 12.5227 148.037 12.4359 148.071 12.3551L152.735 1.14889C152.776 1.05013 152.793 0.942866 152.783 0.83632C152.774 0.729775 152.739 0.627127 152.681 0.537191C152.623 0.447255 152.544 0.372718 152.451 0.319981C152.358 0.267244 152.253 0.237882 152.147 0.234416L144.907 -2.23465e-05C144.766 -0.00457822 144.627 0.0362371 144.51 0.116434C144.394 0.196631 144.307 0.311987 144.261 0.445573Z" fill="#CC0000"/>
<path d="M8.87372 70.9945L15.05 83.0062C15.0892 83.0828 15.1099 83.1675 15.1104 83.2535C15.1109 83.3395 15.0912 83.4245 15.0529 83.5015C15.0146 83.5785 14.9587 83.6455 14.8898 83.697C14.8209 83.7485 14.7408 83.7831 14.6561 83.7981L11.7287 84.3087C11.6428 84.3238 11.5618 84.3591 11.4923 84.4116C11.4228 84.4642 11.3667 84.5326 11.3288 84.6111C11.2909 84.6895 11.2722 84.7759 11.2743 84.8631C11.2763 84.9502 11.2991 85.0356 11.3407 85.1122L18.0702 97.4715C18.1319 97.5872 18.1502 97.7211 18.1219 97.8491C18.0936 97.977 18.0205 98.0907 17.9157 98.1695C17.811 98.2483 17.6816 98.2871 17.5507 98.2789C17.4199 98.2707 17.2963 98.216 17.2023 98.1247L3.61712 84.7168C3.5571 84.6573 3.5116 84.5848 3.48414 84.5049C3.45669 84.425 3.44802 84.3398 3.45881 84.2561C3.4696 84.1723 3.49956 84.0921 3.54636 84.0217C3.59317 83.9514 3.65555 83.8928 3.72868 83.8505L6.95261 81.9937C7.01559 81.9573 7.07073 81.9088 7.11481 81.8509C7.1589 81.7931 7.19106 81.727 7.20944 81.6566C7.22781 81.5863 7.23204 81.5129 7.22187 81.4409C7.2117 81.3689 7.18734 81.2996 7.15019 81.237L1.9893 72.5754C1.94412 72.4991 1.91808 72.4129 1.91342 72.3243C1.90875 72.2357 1.9256 72.1473 1.96252 72.0667C1.99944 71.986 2.05533 71.9155 2.12543 71.8611C2.19552 71.8067 2.27774 71.7701 2.36505 71.7544L8.29005 70.7057C8.40541 70.6854 8.52425 70.7024 8.62924 70.7544C8.73424 70.8063 8.81989 70.8905 8.87372 70.9945Z" fill="#CC0000"/>
<path d="M32.8754 119.789L45.7883 192.819C47.4575 202.259 52.3984 210.81 59.7439 216.971C67.0894 223.132 76.3701 226.509 85.9572 226.509C95.304 226.509 104.367 223.3 111.631 217.417C118.895 211.535 123.918 203.336 125.86 194.194L141.668 119.788L32.8754 119.789Z" fill="#E9E9E9"/>
<path d="M87.2714 135.871C117.313 135.871 141.667 128.671 141.667 119.788C141.667 110.906 117.313 103.706 87.2714 103.706C57.2293 103.706 32.8754 110.906 32.8754 119.788C32.8754 128.671 57.2293 135.871 87.2714 135.871Z" fill="#292A2E"/>
<path d="M106.626 161.056H68.5525C64.9459 161.056 62.0222 163.979 62.0222 167.586V186.005C62.0222 189.611 64.9459 192.535 68.5525 192.535H106.626C110.233 192.535 113.157 189.611 113.157 186.005V167.586C113.157 163.979 110.233 161.056 106.626 161.056Z" fill="#292A2E"/>
<path d="M83.464 177.383H81.2005C81.2005 174.401 82.5515 170.291 88.9881 167.648C92.7585 166.099 91.5103 160.376 91.4967 160.319L93.703 159.812C93.7748 160.124 95.3971 167.462 89.8482 169.74C85.6118 171.48 83.464 174.052 83.464 177.383Z" fill="#E9E9E9"/>
<path d="M103.772 193.859C101.571 189.731 100.652 189.813 96.7789 190.157C95.5178 190.27 93.9488 190.409 92.0332 190.409C83.4592 190.409 82.5671 184.168 82.5587 184.106L84.8038 183.82L83.681 183.963L84.8025 183.81C84.8283 183.987 85.5139 188.146 92.0326 188.146C93.8476 188.146 95.2985 188.016 96.5778 187.903C100.936 187.515 102.98 187.564 105.769 192.794L103.772 193.859Z" fill="#E9E9E9"/>
<path d="M77.6073 178.543C77.53 178.543 77.4538 178.525 77.3852 178.489L74.9386 177.228C74.8243 177.169 74.7381 177.067 74.699 176.944C74.6599 176.822 74.6711 176.689 74.7302 176.574C74.7892 176.46 74.8913 176.374 75.0139 176.335C75.1365 176.296 75.2695 176.307 75.3839 176.366L77.8304 177.627C77.9273 177.677 78.0046 177.758 78.0498 177.857C78.0951 177.956 78.1057 178.067 78.0799 178.173C78.0542 178.279 77.9935 178.373 77.9078 178.44C77.8221 178.507 77.7162 178.544 77.6073 178.543Z" fill="#FFF700"/>
<path d="M74.6514 183.344C74.5383 183.343 74.4288 183.303 74.342 183.231C74.2551 183.158 74.1964 183.058 74.1759 182.946C74.1554 182.835 74.1744 182.72 74.2297 182.621C74.2851 182.523 74.3731 182.447 74.4788 182.406L77.0518 181.426C77.1703 181.387 77.2992 181.396 77.4119 181.449C77.5245 181.503 77.6122 181.598 77.6566 181.714C77.7011 181.831 77.6989 181.96 77.6506 182.075C77.6023 182.19 77.5115 182.282 77.3971 182.332L74.8241 183.312C74.769 183.333 74.7105 183.344 74.6514 183.344Z" fill="#FFF700"/>
<path d="M90.1254 181.35C90.0038 181.35 89.8867 181.304 89.7973 181.222C89.708 181.139 89.6527 181.026 89.6427 180.905C89.6326 180.784 89.6683 180.664 89.7429 180.568C89.8174 180.472 89.9253 180.407 90.0452 180.387L92.7614 179.928C92.888 179.907 93.0175 179.937 93.1218 180.012C93.2262 180.087 93.2967 180.199 93.3181 180.326C93.3394 180.452 93.3099 180.582 93.2359 180.687C93.1619 180.791 93.0494 180.862 92.9231 180.885L90.2068 181.343C90.1799 181.348 90.1527 181.35 90.1254 181.35Z" fill="#FFF700"/>
<path d="M88.1389 178.064C88.0522 178.064 87.9671 178.041 87.8924 177.997C87.8178 177.953 87.7563 177.889 87.7145 177.813C87.6726 177.737 87.6518 177.652 87.6544 177.565C87.6569 177.478 87.6827 177.394 87.7289 177.32L89.1986 174.992C89.2319 174.937 89.2759 174.889 89.328 174.851C89.3801 174.813 89.4393 174.786 89.5021 174.771C89.5649 174.756 89.63 174.754 89.6936 174.764C89.7573 174.775 89.8182 174.798 89.8727 174.832C89.9273 174.867 89.9745 174.912 90.0114 174.965C90.0484 175.017 90.0745 175.077 90.0881 175.14C90.1017 175.203 90.1026 175.268 90.0908 175.332C90.0789 175.395 90.0545 175.456 90.019 175.51L88.5493 177.838C88.5056 177.907 88.445 177.964 88.3733 178.004C88.3015 178.043 88.2209 178.064 88.1389 178.064Z" fill="#FFF700"/>
<path d="M115.826 175.689C111.117 175.689 107.189 174.403 104.118 171.85C98.4449 167.132 97.8366 159.85 97.8127 159.542L100.07 159.373L98.9412 159.458L100.069 159.371C100.075 159.436 100.646 166.032 105.582 170.124C108.816 172.803 113.224 173.86 118.693 173.264L118.938 175.514C117.905 175.629 116.866 175.687 115.826 175.689Z" fill="#E9E9E9"/>
<path d="M56.8131 189.757L56.395 187.532C65.0731 185.901 65.0666 182.29 65.0592 178.11C65.0543 175.295 65.0485 172.105 68.3649 170.239C74.5331 166.769 74.039 158.904 74.0335 158.824L76.2906 158.654C76.3193 159.035 76.915 168.025 69.4747 172.211C67.4191 173.368 67.3175 175.204 67.3227 178.106C67.3305 182.415 67.3399 187.777 56.8131 189.757Z" fill="#E9E9E9"/>
<path d="M123.705 124.806C123.662 124.806 123.619 124.802 123.576 124.793C121.126 124.3 116.503 122.206 116.545 117.803C116.541 116.94 116.747 116.089 117.143 115.323C117.539 114.556 118.115 113.896 118.821 113.4C118.098 112.061 117.884 110.506 118.219 109.021C119.143 104.206 123.991 103.363 126.427 103.591C126.597 103.607 126.754 103.691 126.863 103.822C126.972 103.954 127.024 104.124 127.008 104.294C126.993 104.464 126.91 104.622 126.779 104.731C126.647 104.841 126.478 104.894 126.308 104.879C126.069 104.857 120.422 104.405 119.489 109.265C119.214 110.438 119.37 111.671 119.93 112.738C122.331 111.58 125.619 111.574 127.129 112.728C127.431 112.935 127.666 113.226 127.806 113.565C127.945 113.903 127.983 114.276 127.914 114.636C127.612 116.21 125.764 116.996 123.423 116.547C121.95 116.278 120.602 115.543 119.578 114.449C119.036 114.827 118.595 115.331 118.291 115.917C117.988 116.504 117.833 117.156 117.838 117.816C117.797 122.246 123.772 123.513 123.832 123.526C123.989 123.557 124.129 123.646 124.225 123.775C124.32 123.904 124.364 124.064 124.348 124.224C124.332 124.383 124.258 124.532 124.139 124.639C124.02 124.747 123.865 124.807 123.704 124.806L123.705 124.806ZM120.744 113.788C121.56 114.549 122.574 115.065 123.669 115.276C125.212 115.571 126.492 115.192 126.646 114.391C126.669 114.267 126.652 114.138 126.598 114.024C126.544 113.91 126.455 113.816 126.344 113.755C125.368 113.008 122.823 112.886 120.744 113.788Z" fill="white"/>
<path d="M68.427 119.949C68.2913 119.949 68.159 119.906 68.0489 119.826C67.9388 119.747 67.8564 119.635 67.8135 119.506C67.7706 119.378 67.7692 119.239 67.8097 119.109C67.8502 118.979 67.9304 118.866 68.039 118.784C68.1784 118.679 71.4343 116.169 69.5831 113.123C69.1861 112.413 68.5631 111.855 67.813 111.539C67.0046 113.382 65.1766 114.999 63.7408 115.119C63.4383 115.16 63.1306 115.111 62.8554 114.979C62.5803 114.846 62.3497 114.637 62.1919 114.376C62.0148 114.068 61.925 113.717 61.9322 113.362C61.9394 113.007 62.0433 112.661 62.2327 112.36C62.9535 111.044 64.7462 110.06 66.4946 110.021C66.6401 110.018 66.7856 110.021 66.9279 110.03C67.0091 109.59 66.9867 109.138 66.8627 108.709C66.7386 108.279 66.5163 107.885 66.2133 107.556C64.0862 105.161 60.2453 107.406 60.2071 107.429C60.1342 107.472 60.0533 107.501 59.9693 107.513C59.8852 107.525 59.7996 107.521 59.7172 107.5C59.6349 107.479 59.5575 107.442 59.4894 107.392C59.4213 107.341 59.3639 107.277 59.3205 107.204C59.277 107.131 59.2483 107.05 59.2361 106.966C59.2239 106.882 59.2283 106.797 59.2492 106.714C59.2701 106.632 59.3069 106.554 59.3577 106.486C59.4085 106.418 59.4722 106.361 59.5452 106.317C59.7392 106.201 64.3517 103.512 67.1801 106.697C67.6187 107.176 67.939 107.752 68.1153 108.377C68.2916 109.003 68.3191 109.661 68.1955 110.299C69.2474 110.71 70.1269 111.469 70.6883 112.45C72.6608 115.692 70.3249 118.687 68.8151 119.817C68.7035 119.902 68.5672 119.948 68.427 119.949ZM66.4868 111.317C65.0792 111.362 63.7978 112.196 63.3661 112.984C63.2903 113.087 63.2439 113.208 63.2316 113.335C63.2194 113.463 63.2418 113.591 63.2965 113.706C63.3289 113.761 63.3858 113.85 63.6335 113.832C64.4442 113.764 65.7754 112.687 66.4862 111.317H66.4868Z" fill="white"/>
<path d="M139.244 66.101C142.555 89.5126 120.586 104.111 91.5207 108.221C62.4551 112.331 37.3006 104.397 33.99 80.9842C30.6794 57.571 50.4664 27.5447 79.5316 23.4348C108.597 19.3248 135.934 42.6879 139.244 66.101Z" fill="#E9E9E9"/>
<path d="M111.361 41.0648L81.4263 45.2974C72.043 46.6242 65.5119 55.3064 66.8386 64.6897C68.1654 74.073 76.8476 80.6041 86.2309 79.2774L116.166 75.0447C125.549 73.718 132.08 65.0357 130.754 55.6524C129.427 46.2691 120.745 39.738 111.361 41.0648Z" fill="white"/>
<path d="M76.9571 5.31698L74.6359 5.76187L79.1188 29.1516L81.4401 28.7067L76.9571 5.31698Z" fill="#E9E9E9"/>
<path d="M76.1282 11.589C78.5138 11.589 80.4477 9.6551 80.4477 7.26951C80.4477 4.88392 78.5138 2.95001 76.1282 2.95001C73.7426 2.95001 71.8087 4.88392 71.8087 7.26951C71.8087 9.6551 73.7426 11.589 76.1282 11.589Z" fill="#292A2E"/>
<path d="M92.3417 68.609C91.9215 68.6091 91.5128 68.4722 91.1776 68.2191L78.4658 58.6582C78.2586 58.5064 78.0835 58.315 77.9508 58.095C77.8181 57.8751 77.7304 57.6309 77.6928 57.3768C77.6552 57.1227 77.6685 56.8636 77.7318 56.6147C77.7951 56.3657 77.9072 56.1318 78.0616 55.9265C78.216 55.7212 78.4097 55.5487 78.6313 55.4188C78.853 55.2889 79.0982 55.2044 79.3528 55.1701C79.6074 55.1357 79.8662 55.1523 80.1144 55.2188C80.3625 55.2853 80.5949 55.4004 80.7982 55.5574L93.5093 65.119C93.8353 65.3635 94.0761 65.7044 94.1974 66.0935C94.3187 66.4825 94.3145 66.8999 94.1853 67.2864C94.0561 67.6728 93.8084 68.0088 93.4775 68.2466C93.1466 68.4845 92.7492 68.612 92.3417 68.6113V68.609Z" fill="#292A2E"/>
<path d="M81.2047 70.1835C80.8443 70.1832 80.4911 70.0825 80.1846 69.8927C79.8782 69.703 79.6307 69.4316 79.4699 69.109C79.3091 68.7865 79.2413 68.4255 79.2741 68.0666C79.307 67.7076 79.4391 67.3649 79.6558 67.0769L89.218 54.3655C89.529 53.9589 89.988 53.6918 90.4952 53.6222C91.0023 53.5526 91.5164 53.6862 91.9254 53.9939C92.3344 54.3016 92.6053 54.7585 92.679 55.2651C92.7526 55.7716 92.6231 56.2867 92.3187 56.6982L82.7568 69.4097C82.576 69.6504 82.3416 69.8456 82.0722 69.9799C81.8028 70.1143 81.5057 70.1839 81.2047 70.1835Z" fill="#292A2E"/>
<path d="M119.946 64.705C119.526 64.7051 119.117 64.5682 118.782 64.3151L106.071 54.7532C105.866 54.6007 105.693 54.409 105.562 54.1894C105.431 53.9697 105.345 53.7264 105.308 53.4733C105.272 53.2202 105.286 52.9624 105.349 52.7147C105.413 52.467 105.524 52.2343 105.678 52.0299C105.832 51.8255 106.024 51.6536 106.245 51.5239C106.465 51.3943 106.709 51.3094 106.962 51.2743C107.215 51.2392 107.473 51.2545 107.721 51.3194C107.968 51.3842 108.2 51.4973 108.403 51.6521L121.115 61.214C121.441 61.4585 121.681 61.7995 121.803 62.1885C121.924 62.5775 121.92 62.9949 121.791 63.3814C121.661 63.7679 121.414 64.1039 121.083 64.3417C120.752 64.5795 120.354 64.7071 119.947 64.7063L119.946 64.705Z" fill="#292A2E"/>
<path d="M108.81 66.2802C108.449 66.2799 108.096 66.1793 107.79 65.9895C107.483 65.7998 107.236 65.5284 107.075 65.2058C106.914 64.8833 106.846 64.5223 106.879 64.1633C106.912 63.8044 107.044 63.4617 107.261 63.1736L116.823 50.4622C117.132 50.051 117.592 49.7795 118.101 49.7074C118.611 49.6354 119.128 49.7687 119.539 50.078C119.951 50.3874 120.222 50.8474 120.294 51.3569C120.366 51.8664 120.233 52.3837 119.924 52.7949L110.362 65.5064C110.181 65.747 109.947 65.9423 109.677 66.0766C109.408 66.2109 109.111 66.2806 108.81 66.2802Z" fill="#292A2E"/>
<path d="M101.484 84.5845C102.068 83.8114 102.859 83.2202 103.766 82.8797C104.673 82.5392 105.659 82.4635 106.607 82.6614C107.555 82.8593 108.428 83.3227 109.123 83.9975C109.818 84.6723 110.307 85.5308 110.534 86.4729C110.575 86.6396 110.582 86.8128 110.556 86.9824C110.53 87.1521 110.471 87.3149 110.381 87.4616C110.292 87.6082 110.175 87.7357 110.036 87.8368C109.897 87.9379 109.74 88.0105 109.573 88.0505C109.406 88.0905 109.233 88.0972 109.063 88.07C108.894 88.0428 108.731 87.9824 108.585 87.8921C108.439 87.8019 108.313 87.6837 108.212 87.5443C108.112 87.4049 108.041 87.2471 108.002 87.0799C107.925 86.7597 107.786 86.4577 107.592 86.1913C107.399 85.9248 107.155 85.6991 106.874 85.527C106.593 85.3548 106.281 85.2397 105.956 85.1881C105.631 85.1365 105.299 85.1494 104.979 85.2262C104.658 85.303 104.356 85.4421 104.09 85.6355C103.824 85.829 103.598 86.0731 103.426 86.3538C103.254 86.6345 103.138 86.9463 103.087 87.2716C103.035 87.5968 103.048 87.929 103.125 88.2492C103.203 88.584 103.145 88.9362 102.965 89.2287C102.784 89.5212 102.495 89.7304 102.16 89.8105C101.826 89.8907 101.474 89.8353 101.18 89.6565C100.886 89.4777 100.675 89.19 100.593 88.8561C100.435 88.2035 100.408 87.526 100.513 86.8628C100.619 86.1996 100.855 85.564 101.207 84.9926C101.293 84.8516 101.385 84.7156 101.484 84.5845Z" fill="#292A2E"/>
</g>
<defs>
<clipPath id="clip0_4326_53751">
<rect width="194.027" height="229.08" fill="white"/>
</clipPath>
</defs>
</svg>
