<svg width="30" height="30" viewBox="0 0 30 30" fill="none" xmlns="http://www.w3.org/2000/svg">
<path d="M21.5285 5.58789C22.9586 5.58806 24.3179 6.7982 23.9211 8.36523V8.36621C23.5863 9.67082 22.97 10.8867 22.1154 11.9277C21.2608 12.9687 20.1882 13.8101 18.9738 14.3926C18.2013 14.763 17.676 15.4568 17.6759 16.2051V21.7373C17.6757 22.0319 17.5935 22.3207 17.4386 22.5713C17.2836 22.8219 17.0616 23.0254 16.798 23.1572L14.6212 24.2451C14.3793 24.3659 14.1102 24.4233 13.84 24.4111C13.5698 24.3989 13.3064 24.3179 13.0763 24.1758C12.8465 24.0336 12.6563 23.8346 12.5246 23.5986C12.3928 23.3624 12.3235 23.0957 12.3234 22.8252V16.2051C12.3233 15.4568 11.7982 14.763 11.0246 14.3926H11.0236C9.80993 13.8099 8.73797 12.9685 7.88394 11.9277C7.13669 11.017 6.57156 9.97207 6.21793 8.85156L6.07926 8.36621C5.67947 6.79861 7.0391 5.58822 8.47086 5.58789H21.5285ZM8.47086 6.58789C7.49888 6.5882 6.85462 7.35798 7.04801 8.11816L7.17105 8.55078C7.48635 9.54982 7.99114 10.4809 8.65738 11.293C9.41883 12.2209 10.3741 12.9717 11.4562 13.4912L11.6447 13.5879C12.5762 14.1025 13.3233 15.0461 13.3234 16.2051V22.8242C13.3234 22.9243 13.3489 23.0239 13.3976 23.1113C13.4464 23.1986 13.5177 23.2716 13.6027 23.3242C13.6878 23.3768 13.785 23.4075 13.8849 23.4121C13.9848 23.4166 14.0845 23.3952 14.174 23.3506L16.3507 22.2627C16.4484 22.2139 16.5306 22.1387 16.588 22.0459C16.6454 21.9532 16.6757 21.8462 16.6759 21.7373V16.2051C16.676 14.969 17.5263 13.9782 18.5421 13.4912C19.6248 12.9719 20.5801 12.221 21.342 11.293C22.1039 10.3648 22.6538 9.28134 22.9523 8.11816C23.1439 7.35735 22.4978 6.58805 21.5285 6.58789H8.47086Z" fill="#878784"/>
</svg>
