<svg width="24" height="24" viewBox="0 0 24 24" fill="none" xmlns="http://www.w3.org/2000/svg">
<path fill-rule="evenodd" clip-rule="evenodd" d="M12.6602 5.51767C14.1015 5.52877 15.4896 5.57001 16.5821 5.6329C17.1276 5.66431 17.6046 5.70126 17.9795 5.74325C18.3022 5.7794 18.6009 5.82756 18.7979 5.89267L18.7989 5.89071C19.2459 6.0108 19.6542 6.24698 19.9815 6.57431C20.2679 6.86078 20.4844 7.20887 20.6143 7.59091L20.6641 7.75692L20.667 7.76571C20.9422 8.87529 21.0644 10.4429 21.0616 11.9845C21.0587 13.5282 20.9299 15.0974 20.6807 16.2149C20.6792 16.2217 20.6776 16.2297 20.6758 16.2364C20.5558 16.6833 20.3193 17.0908 19.9922 17.4181C19.6649 17.7454 19.2567 17.9816 18.8096 18.1017L18.7999 18.1046V18.1036C18.2258 18.2455 17.2059 18.3393 16.0127 18.3985C14.8042 18.4585 13.3727 18.4855 11.9483 18.4815C10.5237 18.4776 9.09983 18.4428 7.90728 18.3809C6.72947 18.3198 5.73568 18.2297 5.19634 18.1056C5.19089 18.1043 5.18515 18.1031 5.17974 18.1017C4.73246 17.9816 4.32459 17.7455 3.99712 17.4181C3.66978 17.0907 3.43361 16.6835 3.31353 16.2364L3.3106 16.2257C3.04992 15.1632 2.93568 13.5529 2.93853 11.9845C2.94141 10.4144 3.06212 8.82037 3.2979 7.78622L3.30279 7.76767C3.42279 7.3206 3.65815 6.91243 3.9854 6.58505C4.31279 6.25772 4.7209 6.0215 5.16802 5.90145L5.19536 5.89462C6.64917 5.59142 9.79981 5.49565 12.6602 5.51767ZM12.6524 6.51767C9.78386 6.49559 6.75671 6.59536 5.41704 6.8702C5.14338 6.94559 4.89328 7.09132 4.69243 7.29208C4.4893 7.49534 4.34318 7.74894 4.26861 8.02645C4.05967 8.9554 3.94134 10.4542 3.93853 11.9864C3.93573 13.527 4.04979 15.0377 4.28033 15.9815C4.35529 16.2575 4.50188 16.5087 4.70415 16.711C4.9066 16.9135 5.15834 17.059 5.43462 17.1339C5.8812 17.2342 6.7836 17.3209 7.95904 17.3819C9.13176 17.4428 10.5382 17.4776 11.9502 17.4815C13.3624 17.4855 14.7762 17.4593 15.9629 17.4005C17.1648 17.3408 18.0924 17.2484 18.5596 17.1329C18.8337 17.0575 19.0841 16.9121 19.2852 16.711C19.4857 16.5103 19.6307 16.2607 19.7061 15.9874C19.9322 14.9679 20.0588 13.483 20.0616 11.9825C20.0643 10.4797 19.9433 9.01003 19.6983 8.01571L19.629 7.81259C19.5469 7.61476 19.4268 7.43382 19.2745 7.28134C19.0711 7.07797 18.8169 6.93113 18.5391 6.85653C18.5221 6.85196 18.5048 6.84627 18.4883 6.83993C18.4343 6.81923 18.2407 6.77913 17.8682 6.73739C17.5182 6.69819 17.0608 6.66183 16.5245 6.63095C15.4524 6.56923 14.0815 6.52868 12.6524 6.51767ZM10.0879 8.99911C10.2423 8.90972 10.4332 8.90942 10.5879 8.99813L15.0596 11.5626C15.215 11.6517 15.3105 11.8171 15.3106 11.9962C15.3106 12.1753 15.215 12.3406 15.0596 12.4298L10.5879 14.9942C10.4332 15.083 10.2423 15.0827 10.0879 14.9933C9.93384 14.9038 9.83892 14.7389 9.83892 14.5606V9.43173C9.83894 9.25348 9.93377 9.08855 10.0879 8.99911ZM10.8389 13.6974L13.8057 11.9962L10.8389 10.294V13.6974Z" fill="#3B3B3A"/>
</svg>
