<svg width="16" height="16" viewBox="0 0 16 16" fill="none" xmlns="http://www.w3.org/2000/svg">
<path d="M6.71387 0C10.4219 6.12019e-05 13.4285 3.00589 13.4287 6.71387C13.4287 8.44992 12.769 10.0317 11.6875 11.2236L14.9482 14.4834C15.1433 14.6786 15.1432 14.9952 14.9482 15.1904C14.753 15.3856 14.4365 15.3856 14.2412 15.1904L10.9629 11.9121C9.80532 12.8595 8.3262 13.4287 6.71387 13.4287C3.00589 13.4285 6.12036e-05 10.4219 0 6.71387C0.000256392 3.00601 3.00601 0.000256389 6.71387 0ZM6.71387 1C3.5583 1.00026 1.00026 3.5583 1 6.71387C1.00006 9.8696 3.55818 12.4285 6.71387 12.4287C9.86972 12.4286 12.4286 9.86972 12.4287 6.71387C12.4285 3.55818 9.8696 1.00006 6.71387 1Z" fill="#CC0000"/>
</svg>
