<svg width="42" height="42" viewBox="0 0 42 42" fill="none" xmlns="http://www.w3.org/2000/svg">
<path d="M20.3497 7.10254C21.065 7.10187 21.7789 7.17314 22.4796 7.31738C22.9526 7.41491 23.2573 7.87755 23.1602 8.35059C23.0628 8.82372 22.6002 9.12834 22.127 9.03125C21.5428 8.91097 20.9472 8.85096 20.3507 8.85156H20.3497C15.4519 8.85156 11.4572 12.8916 11.4571 17.9004C11.4572 20.9506 12.8506 23.2719 15.1173 24.8223C15.4012 25.0162 15.6486 25.1852 15.8399 25.334C16.0309 25.4826 16.2329 25.6618 16.3849 25.8994C16.5297 26.126 16.6065 26.3601 16.6602 26.583C16.6859 26.6894 16.7096 26.8073 16.7325 26.9336L16.8018 27.335V27.3379L16.878 27.7979C16.9687 28.3381 17.0242 28.6636 17.0938 28.8975C17.1557 29.1051 17.1997 29.1361 17.2042 29.1396C17.2084 29.1433 17.2455 29.1819 17.462 29.209C17.704 29.2391 18.0353 29.2412 18.5841 29.2412H21.9854C22.5345 29.2412 22.8655 29.2392 23.1075 29.209C23.324 29.1819 23.3603 29.1431 23.3643 29.1396C23.3694 29.1357 23.4141 29.1041 23.4757 28.8975C23.5451 28.6641 23.6011 28.3376 23.6905 27.7969V27.793L23.7686 27.334C23.8154 27.0511 23.8583 26.794 23.9102 26.5801C23.9648 26.3557 24.0426 26.1217 24.1866 25.8965C24.3395 25.6574 24.5421 25.4779 24.7345 25.3291C24.9265 25.1806 25.1739 25.0136 25.4571 24.8223C27.7652 23.2605 29.2422 20.9317 29.2423 17.9004C29.2424 17.4172 29.6341 17.0254 30.1173 17.0254C30.6002 17.0257 30.9922 17.4174 30.9923 17.9004C30.9922 21.5884 29.1609 24.43 26.4376 26.2725H26.4366C26.1342 26.4767 25.9418 26.6069 25.8048 26.7129C25.7052 26.79 25.6698 26.8289 25.6612 26.8389L25.6602 26.8398C25.6592 26.8416 25.6547 26.8496 25.6476 26.8682C25.6386 26.8914 25.6258 26.9298 25.6104 26.9932C25.5771 27.1305 25.5458 27.3165 25.4952 27.623L25.4942 27.627L25.4161 28.082C25.3338 28.5799 25.2606 29.0341 25.1524 29.3975C25.0372 29.7842 24.8559 30.1702 24.4952 30.4756C24.2859 30.6528 24.0592 30.7646 23.8282 30.8379V31.418C23.8282 32.0071 23.8299 32.5374 23.7726 32.9639C23.7118 33.4156 23.5707 33.8795 23.1905 34.2598C22.8102 34.6401 22.3464 34.782 21.8946 34.8428C21.4682 34.9001 20.9379 34.8984 20.3487 34.8984C19.7596 34.8984 19.2292 34.9001 18.8028 34.8428C18.3512 34.782 17.8871 34.6399 17.5069 34.2598C17.1269 33.8795 16.9857 33.4155 16.9249 32.9639C16.8676 32.5375 16.8692 32.0071 16.8692 31.418V30.874C16.5939 30.8034 16.3224 30.6854 16.0743 30.4756C15.713 30.1698 15.5321 29.7835 15.4171 29.3975C15.3091 29.0351 15.2349 28.5818 15.1515 28.085L15.1505 28.082L15.0753 27.625L15.0108 27.2451C14.9924 27.1432 14.9757 27.0624 14.9591 26.9932C14.9437 26.9293 14.9317 26.8909 14.9229 26.8682C14.919 26.8578 14.916 26.8513 14.9142 26.8477C14.9124 26.8442 14.9114 26.8421 14.9112 26.8418C14.9201 26.8557 14.9034 26.8227 14.7647 26.7148C14.6264 26.6072 14.433 26.4745 14.13 26.2676H14.129C11.4183 24.4137 9.70716 21.5674 9.70712 17.9004C9.7072 11.9519 14.4585 7.103 20.3487 7.10254H20.3497ZM21.9854 30.9912H18.6192V31.418C18.6192 32.0565 18.6213 32.4478 18.6593 32.7305C18.6922 32.9755 18.7388 33.0179 18.7442 33.0225C18.7455 33.0237 18.7794 33.0738 19.0362 33.1084C19.3188 33.1464 19.7101 33.1484 20.3487 33.1484C20.9874 33.1484 21.3786 33.1464 21.6612 33.1084C21.9178 33.0739 21.9518 33.024 21.9532 33.0225C21.9563 33.0199 22.0043 32.9825 22.0382 32.7305C22.0762 32.4478 22.0782 32.0565 22.0782 31.418V30.9902C22.0475 30.9902 22.0165 30.9912 21.9854 30.9912ZM26.8604 7.10156C27.2264 7.10156 27.5536 7.32967 27.6808 7.67285L28.0167 8.58008L28.0177 8.58105C28.4854 9.84586 28.643 10.2179 28.9093 10.4844C29.1771 10.7522 29.5495 10.9101 30.8145 11.3779L31.7227 11.7139C32.0659 11.841 32.294 12.1692 32.294 12.5352C32.2938 12.901 32.0658 13.2284 31.7227 13.3555L30.8145 13.6914C29.5492 14.1593 29.1767 14.3166 28.9102 14.583C28.6425 14.8508 28.4854 15.2235 28.0177 16.4883L28.0167 16.4893L27.6808 17.3965C27.5537 17.7398 27.2265 17.9678 26.8604 17.9678C26.4944 17.9677 26.1672 17.7397 26.0401 17.3965L25.7042 16.4893V16.4883C25.2363 15.223 25.078 14.8514 24.8116 14.585C24.5438 14.3172 24.1713 14.1592 22.9063 13.6914L21.9981 13.3555C21.6553 13.2283 21.428 12.9009 21.4278 12.5352C21.4279 12.1693 21.6551 11.8411 21.9981 11.7139L22.9063 11.3779C24.1717 10.91 24.5442 10.7527 24.8106 10.4863C25.0785 10.2185 25.2363 9.84529 25.7042 8.58008L26.0401 7.67285L26.0968 7.5498C26.2495 7.27624 26.5402 7.10165 26.8604 7.10156ZM26.8604 10.4375C26.6381 10.9495 26.398 11.3736 26.0479 11.7236C25.6988 12.0728 25.2754 12.313 24.7638 12.5352C25.2755 12.7574 25.699 12.9978 26.0489 13.3477C26.3978 13.6966 26.6374 14.1197 26.8595 14.6309C27.0818 14.1191 27.323 13.6956 27.6729 13.3457C28.0219 12.9968 28.4449 12.7562 28.9561 12.5342C28.4449 12.312 28.0216 12.0713 27.672 11.7217C27.3229 11.3725 27.0826 10.9492 26.8604 10.4375Z" fill="#A2A2A0"/>
</svg>
